<?xml version="1.0" encoding="utf-8"?>
<!-- Generator: Adobe Illustrator 24.1.1, SVG Export Plug-In . SVG Version: 6.00 Build 0)  -->
<svg version="1.1" id="Layer_1" xmlns="http://www.w3.org/2000/svg" xmlns:xlink="http://www.w3.org/1999/xlink" x="0px" y="0px"
	 viewBox="0 0 512 512" style="enable-background:new 0 0 512 512;" xml:space="preserve">
<style type="text/css">
	.st0{fill:#333333;}
</style>
<g id="XMLID_2_">
	<path id="XMLID_10_" class="st0" d="M239.7,257.4c0-18.6-6.5-35.3-19.5-48.3c-13-13-29.7-19.5-48.3-19.5s-35.3,6.5-48.3,19.5
		c-13,13-20.4,29.7-20.4,48.3s6.5,35.3,19.5,48.3c13,13,29.7,19.5,48.3,19.5s35.3-6.5,48.3-19.5C233.2,291.8,239.7,276,239.7,257.4z
		 M444.2,394c0-9.3-3.7-17.7-10.2-24.2c-6.5-6.5-14.9-10.2-24.2-10.2c-9.3,0-17.7,3.7-24.2,10.2s-10.2,14.9-10.2,24.2
		s3.7,17.7,10.2,24.2c6.5,6.5,14.9,10.2,24.2,10.2c9.3,0,17.7-3.7,24.2-10.2C440.5,410.7,444.2,403.3,444.2,394z M444.2,120.8
		c0-9.3-3.7-17.7-10.2-24.2c-6.5-6.5-14.9-10.2-24.2-10.2c-9.3,0-17.7,3.7-24.2,10.2c-6.5,6.5-10.2,14.9-10.2,24.2
		s3.7,17.7,10.2,24.2c6.5,6.5,14.9,10.2,24.2,10.2c9.3,0,17.7-3.7,24.2-10.2C440.5,138.5,444.2,130.1,444.2,120.8z M342,233.2v49.2
		c0,1.9-0.9,3.7-1.9,5.6c-0.9,1.9-2.8,2.8-4.6,2.8l-40.9,6.5c-1.9,6.5-4.6,13-8.4,20.4c5.6,8.4,13.9,18.6,24.2,30.7
		c0.9,1.9,1.9,3.7,1.9,5.6s-0.9,3.7-1.9,4.6c-3.7,5.6-11.2,13-22.3,24.2c-10.2,10.2-17.7,15.8-20.4,15.8c-1.9,0-3.7-0.9-5.6-1.9
		l-30.7-24.2c-6.5,3.7-13,6.5-20.4,8.4c-1.9,19.5-3.7,32.5-6.5,40.9c-0.9,4.6-3.7,6.5-8.4,6.5h-49.2c-1.9,0-3.7-0.9-5.6-1.9
		c-1.9-0.9-2.8-2.8-2.8-4.6l-6.5-40.9c-5.6-1.9-13-4.6-19.5-8.4l-31.6,23.2c-0.9,0.9-2.8,1.9-5.6,1.9c-1.9,0-3.7-0.9-5.6-1.9
		c-26-23.2-38.1-38.1-38.1-42.7c0-1.9,0.9-3.7,1.9-4.6c1.9-2.8,5.6-7.4,11.2-13.9s9.3-12.1,12.1-15.8c-3.7-7.4-7.4-14.9-9.3-21.4
		l-40.9-6.5c-1.9,0-3.7-0.9-4.6-2.8c-0.9-1.9-1.9-2.8-1.9-5.6v-49.2c0-1.9,0.9-3.7,1.9-5.6c0.9-1.9,2.8-2.8,4.6-2.8l40.9-6.5
		c1.9-6.5,4.6-13,8.4-20.4c-5.6-8.4-13.9-18.6-24.2-30.7c-0.9-1.9-1.9-3.7-1.9-5.6c0-1.9,0.9-3.7,1.9-5.6c3.7-5.6,11.2-13,21.4-23.2
		c10.2-10.2,17.7-15.8,21.4-15.8c1.9,0,3.7,0.9,5.6,1.9l30.7,24.2c5.6-2.8,13-5.6,20.4-8.4c1.9-19.5,3.7-32.5,6.5-40.9
		c0.9-4.6,3.7-6.5,8.4-6.5h49.2c1.9,0,3.7,0.9,5.6,1.9s2.8,2.8,2.8,4.6l6.5,40.9c5.6,1.9,13,4.6,19.5,8.4l31.6-23.2
		c1.9-0.9,2.8-1.9,5.6-1.9c1.9,0,3.7,0.9,5.6,1.9c26,23.2,38.1,38.1,38.1,42.7c0,1.9-0.9,3.7-1.9,4.6c-1.9,2.8-5.6,7.4-11.2,13.9
		c-5.6,6.5-9.3,12.1-12.1,15.8c3.7,8.4,7.4,15.8,9.3,21.4l40.9,6.5c1.9,0,3.7,0.9,4.6,2.8C341,229.5,342,231.4,342,233.2z
		 M512,374.5v37.2c0,2.8-13,5.6-40,8.4c-1.9,4.6-4.6,9.3-8.4,13.9c9.3,20.4,13.9,32.5,13.9,37.2c0,0.9,0,0.9-0.9,1.9
		c-21.4,13-32.5,18.6-33.5,18.6c-1.9,0-5.6-3.7-12.1-12.1c-6.5-8.4-11.2-13.9-13.9-17.7c-2.8,0-5.6,0-7.4,0c-1.9,0-4.6,0-8.4-0.9
		c-2.8,3.7-7.4,10.2-13.9,17.7c-6.5,8.4-11.2,12.1-12.1,12.1c0,0-11.2-6.5-33.5-18.6c-0.9-0.9-0.9-0.9-0.9-1.9
		c0-4.6,4.6-16.7,13.9-37.2c-2.8-4.6-5.6-9.3-8.4-13.9c-26-2.8-40-5.6-40-8.4v-37.2c0-2.8,13-5.6,40-8.4c1.9-5.6,4.6-10.2,8.4-13.9
		c-9.3-20.4-13.9-32.5-13.9-37.2c0-0.9,0-0.9,0.9-1.9c0.9,0,3.7-1.9,9.3-5.6c5.6-2.8,11.2-6.5,15.8-9.3c4.6-2.8,7.4-4.6,8.4-4.6
		c1.9,0,5.6,3.7,12.1,12.1c6.5,8.4,11.2,13.9,13.9,17.7c3.7,0,6.5-0.9,8.4-0.9c1.9,0,4.6,0,8.4,0.9c9.3-13,17.7-22.3,24.2-29.7
		l1.9-0.9c0.9,0,12.1,6.5,33.5,18.6c0.9,0.9,0.9,0.9,0.9,1.9c0,4.6-4.6,16.7-13.9,37.2c2.8,3.7,5.6,8.4,8.4,13.9
		C499,368.9,512,371.7,512,374.5z M512,102.2v37.2c0,2.8-13,5.6-40,8.4c-1.9,4.6-4.6,9.3-8.4,13.9c9.3,20.4,13.9,32.5,13.9,37.2
		c0,0.9,0,0.9-0.9,1.9c-21.4,13-32.5,18.6-33.5,18.6c-1.9,0-5.6-3.7-12.1-12.1c-6.5-8.4-11.2-13.9-13.9-17.7c-3.7,0-6.5,0.9-8.4,0.9
		c-1.9,0-4.6,0-8.4-0.9c-2.8,3.7-7.4,10.2-13.9,17.7c-6.5,8.4-11.2,12.1-12.1,12.1c0,0-11.2-6.5-33.5-18.6c-0.9-0.9-0.9-0.9-0.9-1.9
		c0-4.6,4.6-16.7,13.9-37.2c-2.8-4.6-5.6-9.3-8.4-13.9c-26-2.8-40-5.6-40-8.4v-37.2c0-2.8,13-5.6,40-8.4c1.9-5.6,4.6-10.2,8.4-13.9
		c-9.3-20.4-13.9-32.5-13.9-37.2c0-0.9,0-0.9,0.9-1.9c0.9,0,3.7-1.9,9.3-5.6c5.6-2.8,11.2-6.5,15.8-9.3s7.4-4.6,8.4-4.6
		c1.9,0,5.6,3.7,12.1,12.1s11.2,13.9,13.9,17.7c3.7,0,6.5-0.9,8.4-0.9c1.9,0,4.6,0,8.4,0.9c9.3-13,17.7-22.3,24.2-29.7l1.9-0.9
		c0.9,0,12.1,6.5,33.5,18.6c0.9,0.9,0.9,0.9,0.9,1.9c0,4.6-4.6,16.7-13.9,37.2c2.8,3.7,5.6,8.4,8.4,13.9
		C499,96.6,512,99.4,512,102.2z"/>
</g>
</svg>
